<?xml version="1.0" encoding="UTF-8" standalone="no"?>
<svg
   width="16"
   height="16"
   fill="currentColor"
   class="bi bi-telephone-fill"
   viewBox="0 0 16 16"
   version="1.1"
   id="svg1"
   xmlns="http://www.w3.org/2000/svg"
   xmlns:svg="http://www.w3.org/2000/svg">
  <defs
     id="defs1" />
  <path
     fill-rule="evenodd"
     d="m 1.885,0.511 a 1.745,1.745 0 0 1 2.61,0.163 L 6.29,2.98 C 6.619,3.403 6.735,3.954 6.605,4.474 L 6.058,6.664 A 0.68,0.68 0 0 0 6.236,7.307 L 8.693,9.764 A 0.68,0.68 0 0 0 9.337,9.942 L 11.526,9.395 A 1.75,1.75 0 0 1 13.02,9.71 l 2.306,1.794 c 0.829,0.645 0.905,1.87 0.163,2.611 l -1.034,1.034 c -0.74,0.74 -1.846,1.065 -2.877,0.702 A 18.6,18.6 0 0 1 4.568,11.431 18.6,18.6 0 0 1 0.148,4.422 C -0.214,3.392 0.111,2.285 0.851,1.545 Z"
     id="path1"
     style="fill:#ffffff" />
</svg>
