<?xml version="1.0" encoding="UTF-8" standalone="no"?>
<svg
   width="16"
   height="16"
   fill="currentColor"
   class="bi bi-backpack2-fill"
   viewBox="0 0 16 16"
   version="1.1"
   id="svg2"
   xmlns="http://www.w3.org/2000/svg"
   xmlns:svg="http://www.w3.org/2000/svg">
  <defs
     id="defs2" />
  <path
     d="m 5,13 h 6 v -3 h -1 v 0.5 a 0.5,0.5 0 0 1 -1,0 V 10 H 5 Z"
     id="path1"
     style="fill:#ffffff" />
  <path
     d="M 6,2 V 2.341 C 3.67,3.165 2,5.388 2,8 V 9.191 L 0.83,9.776 A 1.5,1.5 0 0 0 0,11.118 V 13.5 A 1.5,1.5 0 0 0 1.5,15 h 1 c 0.456,0.607 1.182,1 2,1 h 7 c 0.818,0 1.544,-0.393 2,-1 h 1 A 1.5,1.5 0 0 0 16,13.5 V 11.118 A 1.5,1.5 0 0 0 15.17,9.776 L 14,9.191 V 8 A 6,6 0 0 0 10,2.341 V 2 A 2,2 0 1 0 6,2 M 8,1 a 1,1 0 0 1 1,1 v 0.083 a 6,6 0 0 0 -2,0 V 2 A 1,1 0 0 1 8,1 m 0,3 a 4,4 0 0 1 3.96,3.43 0.5,0.5 0 1 1 -0.99,0.14 3,3 0 0 0 -5.94,0 A 0.5,0.5 0 1 1 4.04,7.43 4,4 0 0 1 8,4 M 4.5,9 h 7 A 0.5,0.5 0 0 1 12,9.5 v 4 A 0.5,0.5 0 0 1 11.5,14 h -7 A 0.5,0.5 0 0 1 4,13.5 v -4 A 0.5,0.5 0 0 1 4.5,9"
     id="path2"
     style="fill:#ffffff" />
</svg>
