<?xml version="1.0" encoding="UTF-8" standalone="no"?>
<svg
   width="16"
   height="16"
   fill="currentColor"
   class="bi bi-clipboard-data-fill"
   viewBox="0 0 16 16"
   version="1.1"
   id="svg2"
   xmlns="http://www.w3.org/2000/svg"
   xmlns:svg="http://www.w3.org/2000/svg">
  <defs
     id="defs2" />
  <path
     d="M 6.5,0 A 1.5,1.5 0 0 0 5,1.5 v 1 A 1.5,1.5 0 0 0 6.5,4 h 3 A 1.5,1.5 0 0 0 11,2.5 v -1 A 1.5,1.5 0 0 0 9.5,0 Z m 3,1 A 0.5,0.5 0 0 1 10,1.5 v 1 A 0.5,0.5 0 0 1 9.5,3 h -3 A 0.5,0.5 0 0 1 6,2.5 v -1 A 0.5,0.5 0 0 1 6.5,1 Z"
     id="path1"
     style="fill:#ffffff" />
  <path
     d="M 4,1.5 H 3 a 2,2 0 0 0 -2,2 V 14 a 2,2 0 0 0 2,2 h 10 a 2,2 0 0 0 2,-2 V 3.5 a 2,2 0 0 0 -2,-2 h -1 v 1 A 2.5,2.5 0 0 1 9.5,5 h -3 A 2.5,2.5 0 0 1 4,2.5 Z M 10,8 a 1,1 0 1 1 2,0 v 5 a 1,1 0 1 1 -2,0 z m -6,4 a 1,1 0 1 1 2,0 v 1 A 1,1 0 1 1 4,13 Z M 8,9 a 1,1 0 0 1 1,1 v 3 A 1,1 0 1 1 7,13 V 10 A 1,1 0 0 1 8,9"
     id="path2"
     style="fill:#ffffff" />
</svg>
