<?xml version="1.0" encoding="UTF-8" standalone="no"?>
<svg
   width="16"
   height="16"
   fill="currentColor"
   class="bi bi-emoji-smile-fill"
   viewBox="0 0 16 16"
   version="1.1"
   id="svg1"
   xmlns="http://www.w3.org/2000/svg"
   xmlns:svg="http://www.w3.org/2000/svg">
  <defs
     id="defs1" />
  <path
     d="M 8,16 A 8,8 0 1 0 8,0 8,8 0 0 0 8,16 M 7,6.5 C 7,7.328 6.552,8 6,8 5.448,8 5,7.328 5,6.5 5,5.672 5.448,5 6,5 6.552,5 7,5.672 7,6.5 M 4.285,9.567 A 0.5,0.5 0 0 1 4.968,9.75 3.5,3.5 0 0 0 8,11.5 3.5,3.5 0 0 0 11.032,9.75 0.5,0.5 0 1 1 11.898,10.25 4.5,4.5 0 0 1 8,12.5 4.5,4.5 0 0 1 4.102,10.25 0.5,0.5 0 0 1 4.285,9.567 M 10,8 C 9.448,8 9,7.328 9,6.5 9,5.672 9.448,5 10,5 10.552,5 11,5.672 11,6.5 11,7.328 10.552,8 10,8"
     id="path1"
     style="fill:#ffffff" />
</svg>
