<?xml version="1.0" encoding="UTF-8" standalone="no"?>
<svg
   width="16"
   height="16"
   fill="currentColor"
   class="bi bi-info-square-fill"
   viewBox="0 0 16 16"
   version="1.1"
   id="svg1"
   xmlns="http://www.w3.org/2000/svg"
   xmlns:svg="http://www.w3.org/2000/svg">
  <defs
     id="defs1" />
  <path
     d="M 0,2 A 2,2 0 0 1 2,0 h 12 a 2,2 0 0 1 2,2 v 12 a 2,2 0 0 1 -2,2 H 2 A 2,2 0 0 1 0,14 Z m 8.93,4.588 -2.29,0.287 -0.082,0.38 0.45,0.083 c 0.294,0.07 0.352,0.176 0.288,0.469 l -0.738,3.468 c -0.194,0.897 0.105,1.319 0.808,1.319 0.545,0 1.178,-0.252 1.465,-0.598 L 8.919,11.58 c -0.2,0.176 -0.492,0.246 -0.686,0.246 -0.275,0 -0.375,-0.193 -0.304,-0.533 z M 8,5.5 a 1,1 0 1 0 0,-2 1,1 0 0 0 0,2"
     id="path1"
     style="fill:#ffffff" />
</svg>
