<?xml version="1.0" encoding="UTF-8" standalone="no"?>
<svg
   width="16"
   height="16"
   fill="currentColor"
   class="bi bi-lightbulb-fill"
   viewBox="0 0 16 16"
   version="1.1"
   id="svg1"
   xmlns="http://www.w3.org/2000/svg"
   xmlns:svg="http://www.w3.org/2000/svg">
  <defs
     id="defs1" />
  <path
     d="m 2,6 a 6,6 0 1 1 10.174,4.31 c -0.203,0.196 -0.359,0.4 -0.453,0.619 l -0.762,1.769 A 0.5,0.5 0 0 1 10.5,13 h -5 A 0.5,0.5 0 0 1 5.04,12.698 L 4.279,10.928 A 2,2 0 0 0 3.826,10.31 5.98,5.98 0 0 1 2,6 m 3,8.5 A 0.5,0.5 0 0 1 5.5,14 h 5 a 0.5,0.5 0 0 1 0,1 l -0.224,0.447 A 1,1 0 0 1 9.382,16 H 6.618 A 1,1 0 0 1 5.724,15.447 L 5.5,15 A 0.5,0.5 0 0 1 5,14.5"
     id="path1"
     style="fill:#ffffff" />
</svg>
