<?xml version="1.0" encoding="UTF-8" standalone="no"?>
<svg
   width="16"
   height="16"
   fill="currentColor"
   class="bi bi-person-walking"
   viewBox="0 0 16 16"
   version="1.1"
   id="svg2"
   xmlns="http://www.w3.org/2000/svg"
   xmlns:svg="http://www.w3.org/2000/svg">
  <defs
     id="defs2" />
  <path
     d="m 9.5,1.5 a 1.5,1.5 0 1 1 -3,0 1.5,1.5 0 0 1 3,0 M 6.44,3.752 A 0.75,0.75 0 0 1 7,3.5 h 1.445 c 0.742,0 1.32,0.643 1.243,1.38 L 9.258,8.963 A 1.8,1.8 0 0 1 9.17,9.358 l -0.318,0.906 0.213,0.242 a 0.8,0.8 0 0 1 0.114,0.175 l 2,4.25 A 0.75,0.75 0 1 1 9.822,15.569 L 7.866,11.415 6.186,9.494 A 0.75,0.75 0 0 1 6,8.96 L 6.138,6.347 5.703,6.836 5.239,9.622 A 0.75015265,0.75015265 0 1 1 3.759,9.376 l 0.5,-3 a 0.75,0.75 0 0 1 0.18,-0.375 l 2,-2.25 z"
     id="path1"
     style="fill:#ffffff" />
  <path
     d="m 6.25,11.745 v -1.418 l 1.204,1.375 0.261,0.524 a 0.8,0.8 0 0 1 -0.12,0.231 l -2.5,3.25 A 0.75024929,0.75024929 0 1 1 3.905,14.793 Z M 10.47,7.53 9.976,7.036 10.181,5.193 10.187,5.126 11.311,6.25 h 1.44 a 0.75,0.75 0 0 1 0,1.5 H 11 A 0.75,0.75 0 0 1 10.469,7.53 Z"
     id="path2"
     style="fill:#ffffff" />
</svg>
