<?xml version="1.0" encoding="UTF-8" standalone="no"?>
<svg
   width="16"
   height="16"
   fill="currentColor"
   class="bi bi-book-fill"
   viewBox="0 0 16 16"
   version="1.1"
   id="svg1"
   xmlns="http://www.w3.org/2000/svg"
   xmlns:svg="http://www.w3.org/2000/svg">
  <defs
     id="defs1" />
  <path
     d="M 8,1.783 C 7.015,0.936 5.587,0.81 4.287,0.94 2.773,1.093 1.245,1.612 0.293,2.045 A 0.5,0.5 0 0 0 0,2.5 v 11 a 0.5,0.5 0 0 0 0.707,0.455 c 0.882,-0.4 2.303,-0.881 3.68,-1.02 1.409,-0.142 2.59,0.087 3.223,0.877 a 0.5,0.5 0 0 0 0.78,0 c 0.633,-0.79 1.814,-1.019 3.222,-0.877 1.378,0.139 2.8,0.62 3.681,1.02 A 0.5,0.5 0 0 0 16,13.5 V 2.5 A 0.5,0.5 0 0 0 15.707,2.045 C 14.755,1.612 13.227,1.093 11.713,0.94 10.413,0.809 8.985,0.936 8,1.783"
     id="path1"
     style="fill:#ffffff" />
</svg>
